<svg width="46" height="33" viewBox="0 0 46 33" fill="none" xmlns="http://www.w3.org/2000/svg">
<path d="M44.3571 0.0117102H1.64286H1.51143C1.39695 -0.0039034 1.2809 -0.0039034 1.16643 0.0117102L0.887143 0.12717C0.797768 0.170391 0.714828 0.225905 0.640714 0.292111C0.54725 0.355924 0.464132 0.43381 0.394286 0.523029L0.295714 0.621993C0.289529 0.671281 0.289529 0.721153 0.295714 0.770441C0.242052 0.870457 0.198042 0.975398 0.164286 1.08383C0.0953466 1.21515 0.040285 1.35335 0 1.49618C0 1.49618 0 1.66112 0 1.66112V31.3506C0 31.788 0.173086 32.2076 0.481182 32.5169C0.789277 32.8262 1.20714 33 1.64286 33H44.3571C44.7929 33 45.2107 32.8262 45.5188 32.5169C45.8269 32.2076 46 31.788 46 31.3506V1.66112C46 1.22367 45.8269 0.804138 45.5188 0.494813C45.2107 0.185488 44.7929 0.0117102 44.3571 0.0117102ZM23 14.5431L6.9 3.31054H41.2193L23 14.5431ZM3.28571 29.7012V4.81151L22.0636 17.8584C22.1587 17.9144 22.2575 17.964 22.3593 18.0068H22.4907C22.6522 18.0814 22.8238 18.1314 23 18.1553C23.2337 18.149 23.4633 18.0928 23.6736 17.9903H23.7886L42.7143 6.26299V29.7012H3.28571Z" fill="white"/>
</svg>
