<svg width="30" height="42" viewBox="0 0 30 42" fill="none" xmlns="http://www.w3.org/2000/svg">
<path d="M21.5356 15.8465H8.51113C6.46608 15.7668 4.53134 14.8983 3.11264 13.4233C1.69393 11.9482 0.901489 9.98107 0.901489 7.93448C0.901489 5.88788 1.69393 3.92078 3.11264 2.4457C4.53134 0.970627 6.46608 0.10217 8.51113 0.0224609H21.5356C23.5807 0.10217 25.5154 0.970627 26.9341 2.4457C28.3528 3.92078 29.1453 5.88788 29.1453 7.93448C29.1453 9.98107 28.3528 11.9482 26.9341 13.4233C25.5154 14.8983 23.5807 15.7668 21.5356 15.8465ZM8.51113 3.02626C7.25139 3.08861 6.06386 3.63293 5.19432 4.54657C4.32478 5.46021 3.83983 6.6732 3.83983 7.93448C3.83983 9.19575 4.32478 10.4087 5.19432 11.3224C6.06386 12.236 7.25139 12.7803 8.51113 12.8427H21.5356C22.7954 12.7803 23.9829 12.236 24.8524 11.3224C25.722 10.4087 26.2069 9.19575 26.2069 7.93448C26.2069 6.6732 25.722 5.46021 24.8524 4.54657C23.9829 3.63293 22.7954 3.08861 21.5356 3.02626H8.51113Z" fill="white"/>
<path d="M14.9267 28.6548H8.51062C6.41382 28.6548 4.40289 27.8218 2.92023 26.3392C1.43757 24.8565 0.604614 22.8456 0.604614 20.7488C0.604614 18.652 1.43757 16.6411 2.92023 15.1584C4.40289 13.6757 6.41382 12.8428 8.51062 12.8428C8.90895 12.8428 9.29097 13.001 9.57263 13.2827C9.85429 13.5643 10.0125 13.9463 10.0125 14.3447C10.0125 14.743 9.85429 15.125 9.57263 15.4067C9.29097 15.6883 8.90895 15.8466 8.51062 15.8466C7.21048 15.8466 5.96358 16.3631 5.04424 17.2824C4.1249 18.2017 3.60842 19.4486 3.60842 20.7488C3.60842 22.0489 4.1249 23.2958 5.04424 24.2152C5.96358 25.1345 7.21048 25.651 8.51062 25.651H13.4248V14.3447C13.4248 13.9463 13.5831 13.5643 13.8647 13.2827C14.1464 13.001 14.5284 12.8428 14.9267 12.8428C15.3251 12.8428 15.7071 13.001 15.9887 13.2827C16.2704 13.5643 16.4286 13.9463 16.4286 14.3447V27.1529C16.4286 27.5512 16.2704 27.9332 15.9887 28.2149C15.7071 28.4966 15.3251 28.6548 14.9267 28.6548Z" fill="white"/>
<path d="M8.6069 41.4755C7.54194 41.5171 6.47956 41.3431 5.48342 40.9642C4.48728 40.5853 3.57789 40.0092 2.80974 39.2704C2.04159 38.5316 1.4305 37.6454 1.01307 36.6647C0.595651 35.6841 0.380493 34.6293 0.380493 33.5635C0.380493 32.4978 0.595651 31.443 1.01307 30.4623C1.4305 29.4817 2.04159 28.5954 2.80974 27.8567C3.57789 27.1179 4.48728 26.5417 5.48342 26.1628C6.47956 25.7839 7.54194 25.61 8.6069 25.6515C9.00523 25.6515 9.38724 25.8098 9.6689 26.0914C9.95057 26.3731 10.1088 26.7551 10.1088 27.1534C10.1088 27.5517 9.95057 27.9338 9.6689 28.2154C9.38724 28.4971 9.00523 28.6553 8.6069 28.6553C7.63445 28.6529 6.68316 28.9391 5.87344 29.4777C5.06372 30.0162 4.43198 30.7829 4.05819 31.6806C3.68441 32.5784 3.58537 33.5668 3.77363 34.5209C3.96189 35.4749 4.42897 36.3517 5.11576 37.0401C5.80254 37.7286 6.67815 38.1978 7.63174 38.3884C8.58533 38.579 9.57403 38.4824 10.4727 38.1108C11.3713 37.7392 12.1396 37.1094 12.6801 36.301C13.2206 35.4926 13.5091 34.542 13.5091 33.5695V27.1534C13.5091 26.7551 13.6673 26.3731 13.949 26.0914C14.2307 25.8098 14.6127 25.6515 15.011 25.6515C15.4093 25.6515 15.7914 25.8098 16.073 26.0914C16.3547 26.3731 16.5129 26.7551 16.5129 27.1534V33.5695C16.5097 35.6654 15.6758 37.6744 14.1938 39.1564C12.7118 40.6384 10.7027 41.4724 8.6069 41.4755Z" fill="white"/>
<path d="M21.4272 28.8593C19.8421 28.8593 18.2927 28.3893 16.9748 27.5087C15.6568 26.6281 14.6296 25.3765 14.0231 23.9121C13.4165 22.4477 13.2578 20.8363 13.567 19.2817C13.8762 17.7271 14.6395 16.2991 15.7603 15.1783C16.8811 14.0575 18.3091 13.2943 19.8637 12.985C21.4183 12.6758 23.0297 12.8345 24.4941 13.4411C25.9584 14.0477 27.2101 15.0749 28.0907 16.3928C28.9713 17.7107 29.4413 19.2602 29.4413 20.8452C29.4413 21.8976 29.234 22.9398 28.8313 23.9121C28.4285 24.8844 27.8382 25.7679 27.094 26.5121C26.3498 27.2562 25.4664 27.8466 24.4941 28.2493C23.5217 28.6521 22.4796 28.8593 21.4272 28.8593ZM21.4272 15.8469C20.4357 15.8469 19.4665 16.141 18.6423 16.6921C17.8181 17.2432 17.1759 18.0264 16.7971 18.9426C16.4182 19.8588 16.3197 20.8669 16.514 21.8391C16.7083 22.8114 17.1867 23.7041 17.8886 24.4043C18.5905 25.1045 19.4844 25.5808 20.4571 25.7727C21.4298 25.9647 22.4376 25.8638 23.3529 25.4827C24.2682 25.1016 25.0499 24.4576 25.599 23.6321C26.1481 22.8065 26.4399 21.8367 26.4375 20.8452C26.4343 19.5185 25.9051 18.2471 24.9658 17.3101C24.0265 16.3731 22.7539 15.8469 21.4272 15.8469Z" fill="white"/>
<path d="M14.9264 15.8465C14.7292 15.8449 14.5342 15.8045 14.3526 15.7276C14.1709 15.6506 14.0062 15.5387 13.8679 15.3981C13.7295 15.2575 13.6202 15.0911 13.5462 14.9082C13.4722 14.7254 13.4349 14.5298 13.4365 14.3326L13.5326 1.51235C13.5358 1.11818 13.6938 0.74104 13.9725 0.46231C14.2512 0.18358 14.6283 0.0256019 15.0225 0.0224609C15.2198 0.0240325 15.4147 0.0644384 15.5964 0.141372C15.778 0.218305 15.9427 0.330258 16.081 0.47084C16.2194 0.611421 16.3287 0.777877 16.4027 0.960703C16.4767 1.14353 16.514 1.33914 16.5124 1.53638L16.4163 14.3566C16.4101 14.7498 16.2511 15.1252 15.9731 15.4033C15.695 15.6813 15.3196 15.8403 14.9264 15.8465Z" fill="white"/>
</svg>
