<svg width="37" height="39" viewBox="0 0 37 39" fill="none" xmlns="http://www.w3.org/2000/svg">
<path d="M25.7279 37.6726V31.0383C25.7926 30.2209 25.6814 29.3992 25.4018 28.6277C25.1222 27.8563 24.6805 27.1528 24.1061 26.5641C29.5234 25.9641 35.2168 23.9241 35.2168 14.5642C35.2164 12.1708 34.2898 9.86916 32.6289 8.13569C33.4154 6.04172 33.3598 3.72718 32.4736 1.67288C32.4736 1.67288 30.4378 1.07289 25.7279 4.21001C21.7736 3.14514 17.6053 3.14514 13.651 4.21001C8.94108 1.07289 6.90528 1.67288 6.90528 1.67288C6.01914 3.72718 5.96353 6.04172 6.75 8.13569C5.07672 9.88201 4.14921 12.2044 4.16211 14.6156C4.16211 23.907 9.85547 25.947 15.2728 26.6155C14.7052 27.1983 14.2674 27.8934 13.988 28.6554C13.7086 29.4174 13.5938 30.2293 13.651 31.0383V37.6726M13.651 32.5298C5.02474 35.1012 5.02474 28.2441 1.57422 27.387L13.651 32.5298Z" stroke="white" stroke-width="2" stroke-linecap="round" stroke-linejoin="round"/>
</svg>
