<svg width="32" height="32" viewBox="0 0 32 32" fill="none" xmlns="http://www.w3.org/2000/svg">
<path fill-rule="evenodd" clip-rule="evenodd" d="M7.41892 32V10.6125H0V32H7.41892ZM3.98649 7.375C6.45946 7.375 8 5.7375 8 3.6875C7.95946 1.6 6.45946 0 4.02703 0C1.59459 0 0.0135133 1.6 0.0135133 3.6875C0.0135133 5.7375 1.55405 7.375 3.93243 7.375H3.98649Z" fill="white"/>
<path fill-rule="evenodd" clip-rule="evenodd" d="M24.075 10C20.4375 10 18.875 12.0617 17.875 13.4949V10.5029H11V32H17.875V19.7554C17.875 19.1269 17.925 18.4983 18.1125 18.0583C18.6125 16.8011 19.7375 15.5063 21.6375 15.5063C24.125 15.5063 25.125 17.4297 25.125 20.2457V32H32V19.4411C32 12.992 28.6 10 24.075 10Z" fill="white"/>
</svg>
