<svg width="78" height="77" viewBox="0 0 78 77" fill="none" xmlns="http://www.w3.org/2000/svg">
<circle cx="39.3959" cy="38.4487" r="38.4487" fill="#00794E"/>
<path d="M46.7279 57.6726V51.0383C46.7926 50.2209 46.6814 49.3992 46.4018 48.6277C46.1222 47.8563 45.6805 47.1528 45.1061 46.5641C50.5234 45.9641 56.2168 43.9241 56.2168 34.5642C56.2164 32.1708 55.2898 29.8692 53.6289 28.1357C54.4154 26.0417 54.3598 23.7272 53.4736 21.6729C53.4736 21.6729 51.4378 21.0729 46.7279 24.21C42.7736 23.1451 38.6053 23.1451 34.651 24.21C29.9411 21.0729 27.9053 21.6729 27.9053 21.6729C27.0191 23.7272 26.9635 26.0417 27.75 28.1357C26.0767 29.882 25.1492 32.2044 25.1621 34.6156C25.1621 43.907 30.8555 45.947 36.2728 46.6155C35.7052 47.1983 35.2674 47.8934 34.988 48.6554C34.7086 49.4174 34.5938 50.2293 34.651 51.0383V57.6726M34.651 52.5298C26.0247 55.1012 26.0247 48.2441 22.5742 47.387L34.651 52.5298Z" stroke="white" stroke-width="2" stroke-linecap="round" stroke-linejoin="round"/>
</svg>
