<svg width="78" height="77" viewBox="0 0 78 77" fill="none" xmlns="http://www.w3.org/2000/svg">
<circle cx="39.4223" cy="38.4487" r="38.4487" fill="#00794E"/>
<path d="M46.5355 33.8465H33.511C31.466 33.7668 29.5312 32.8983 28.1125 31.4233C26.6938 29.9482 25.9014 27.9811 25.9014 25.9345C25.9014 23.8879 26.6938 21.9208 28.1125 20.4457C29.5312 18.9706 31.466 18.1022 33.511 18.0225H46.5355C48.5805 18.1022 50.5153 18.9706 51.934 20.4457C53.3527 21.9208 54.1451 23.8879 54.1451 25.9345C54.1451 27.9811 53.3527 29.9482 51.934 31.4233C50.5153 32.8983 48.5805 33.7668 46.5355 33.8465ZM33.511 21.0263C32.2513 21.0886 31.0637 21.6329 30.1942 22.5466C29.3247 23.4602 28.8397 24.6732 28.8397 25.9345C28.8397 27.1958 29.3247 28.4087 30.1942 29.3224C31.0637 30.236 32.2513 30.7803 33.511 30.8427H46.5355C47.7952 30.7803 48.9828 30.236 49.8523 29.3224C50.7218 28.4087 51.2068 27.1958 51.2068 25.9345C51.2068 24.6732 50.7218 23.4602 49.8523 22.5466C48.9828 21.6329 47.7952 21.0886 46.5355 21.0263H33.511Z" fill="white"/>
<path d="M39.9266 46.6548H33.5105C31.4137 46.6548 29.4028 45.8218 27.9201 44.3392C26.4374 42.8565 25.6045 40.8456 25.6045 38.7488C25.6045 36.652 26.4374 34.6411 27.9201 33.1584C29.4028 31.6757 31.4137 30.8428 33.5105 30.8428C33.9088 30.8428 34.2908 31.001 34.5725 31.2827C34.8542 31.5643 35.0124 31.9463 35.0124 32.3447C35.0124 32.743 34.8542 33.125 34.5725 33.4067C34.2908 33.6883 33.9088 33.8466 33.5105 33.8466C32.2104 33.8466 30.9635 34.3631 30.0441 35.2824C29.1248 36.2017 28.6083 37.4486 28.6083 38.7488C28.6083 40.0489 29.1248 41.2958 30.0441 42.2152C30.9635 43.1345 32.2104 43.651 33.5105 43.651H38.4247V32.3447C38.4247 31.9463 38.583 31.5643 38.8646 31.2827C39.1463 31.001 39.5283 30.8428 39.9266 30.8428C40.325 30.8428 40.707 31.001 40.9886 31.2827C41.2703 31.5643 41.4285 31.9463 41.4285 32.3447V45.1529C41.4285 45.5512 41.2703 45.9332 40.9886 46.2149C40.707 46.4966 40.325 46.6548 39.9266 46.6548Z" fill="white"/>
<path d="M33.6068 59.4755C32.5418 59.5171 31.4794 59.3431 30.4833 58.9642C29.4872 58.5853 28.5778 58.0092 27.8096 57.2704C27.0415 56.5316 26.4304 55.6454 26.013 54.6647C25.5955 53.6841 25.3804 52.6293 25.3804 51.5635C25.3804 50.4978 25.5955 49.443 26.013 48.4623C26.4304 47.4817 27.0415 46.5954 27.8096 45.8567C28.5778 45.1179 29.4872 44.5417 30.4833 44.1628C31.4794 43.7839 32.5418 43.61 33.6068 43.6515C34.0051 43.6515 34.3871 43.8098 34.6688 44.0914C34.9504 44.3731 35.1087 44.7551 35.1087 45.1534C35.1087 45.5517 34.9504 45.9338 34.6688 46.2154C34.3871 46.4971 34.0051 46.6553 33.6068 46.6553C32.6343 46.6529 31.683 46.9391 30.8733 47.4777C30.0636 48.0162 29.4319 48.7829 29.0581 49.6806C28.6843 50.5784 28.5853 51.5668 28.7735 52.5209C28.9618 53.4749 29.4288 54.3517 30.1156 55.0401C30.8024 55.7286 31.678 56.1978 32.6316 56.3884C33.5852 56.579 34.5739 56.4824 35.4726 56.1108C36.3712 55.7392 37.1394 55.1094 37.6799 54.301C38.2205 53.4926 38.509 52.542 38.509 51.5695V45.1534C38.509 44.7551 38.6672 44.3731 38.9489 44.0914C39.2305 43.8098 39.6126 43.6515 40.0109 43.6515C40.4092 43.6515 40.7912 43.8098 41.0729 44.0914C41.3546 44.3731 41.5128 44.7551 41.5128 45.1534V51.5695C41.5096 53.6654 40.6756 55.6744 39.1937 57.1564C37.7117 58.6384 35.7026 59.4724 33.6068 59.4755Z" fill="white"/>
<path d="M46.4272 46.8593C44.8422 46.8593 43.2927 46.3893 41.9748 45.5087C40.6569 44.6281 39.6297 43.3765 39.0231 41.9121C38.4166 40.4477 38.2579 38.8363 38.5671 37.2817C38.8763 35.7271 39.6396 34.2991 40.7604 33.1783C41.8812 32.0575 43.3092 31.2943 44.8638 30.985C46.4183 30.6758 48.0297 30.8345 49.4941 31.4411C50.9585 32.0477 52.2101 33.0749 53.0907 34.3928C53.9714 35.7107 54.4414 37.2602 54.4414 38.8452C54.4414 39.8976 54.2341 40.9398 53.8313 41.9121C53.4286 42.8844 52.8383 43.7679 52.0941 44.5121C51.3499 45.2562 50.4664 45.8466 49.4941 46.2493C48.5218 46.6521 47.4797 46.8593 46.4272 46.8593ZM46.4272 33.8469C45.4358 33.8469 44.4666 34.141 43.6424 34.6921C42.8182 35.2432 42.176 36.0264 41.7971 36.9426C41.4183 37.8588 41.3198 38.8669 41.5141 39.8391C41.7084 40.8114 42.1867 41.7041 42.8887 42.4043C43.5906 43.1045 44.4844 43.5808 45.4572 43.7727C46.4299 43.9647 47.4376 43.8638 48.3529 43.4827C49.2683 43.1016 50.0499 42.4576 50.599 41.6321C51.1481 40.8065 51.44 39.8367 51.4376 38.8452C51.4344 37.5185 50.9051 36.2471 49.9658 35.3101C49.0266 34.3731 47.754 33.8469 46.4272 33.8469Z" fill="white"/>
<path d="M39.9265 33.8465C39.7292 33.8449 39.5342 33.8045 39.3526 33.7276C39.171 33.6506 39.0063 33.5387 38.868 33.3981C38.7296 33.2575 38.6203 33.0911 38.5463 32.9082C38.4723 32.7254 38.435 32.5298 38.4366 32.3326L38.5327 19.5123C38.5358 19.1182 38.6938 18.741 38.9725 18.4623C39.2513 18.1836 39.6284 18.0256 40.0226 18.0225C40.2198 18.024 40.4148 18.0644 40.5964 18.1414C40.778 18.2183 40.9427 18.3303 41.0811 18.4708C41.2194 18.6114 41.3287 18.7779 41.4028 18.9607C41.4768 19.1435 41.514 19.3391 41.5125 19.5364L41.4163 32.3566C41.4101 32.7498 41.2512 33.1252 40.9731 33.4033C40.695 33.6813 40.3197 33.8403 39.9265 33.8465Z" fill="white"/>
</svg>
