<?xml version="1.0" encoding="utf-8"?><svg xmlns="http://www.w3.org/2000/svg" xmlns:xlink="http://www.w3.org/1999/xlink"><symbol fill="none" viewBox="0 0 46 33" id="email" xmlns="http://www.w3.org/2000/svg"><path d="M44.357.012H1.511a1.276 1.276 0 00-.345 0L.887.127C.797.17.715.226.641.292a1.102 1.102 0 00-.247.231L.296.622a.596.596 0 000 .148c-.054.1-.098.205-.132.314-.069.131-.124.27-.164.412v29.855c0 .437.173.857.481 1.166.308.31.726.483 1.162.483h42.714a1.64 1.64 0 001.162-.483c.308-.31.481-.729.481-1.166V1.66c0-.437-.173-.857-.481-1.166a1.64 1.64 0 00-1.162-.483zM23 14.543L6.9 3.311h34.32L23 14.543zM3.286 29.701V4.811l18.778 13.047c.095.056.194.106.295.149h.132c.161.074.333.124.509.148.234-.006.463-.062.674-.165h.115L42.714 6.263v23.438H3.286z" fill="#fff"/></symbol><symbol fill="none" viewBox="0 0 30 42" id="figma" xmlns="http://www.w3.org/2000/svg"><path d="M21.536 15.847H8.51a7.918 7.918 0 010-15.825h13.025a7.918 7.918 0 010 15.825zM8.51 3.027a4.914 4.914 0 000 9.816h13.025a4.914 4.914 0 000-9.817H8.51z" fill="#fff"/><path d="M14.927 28.655H8.51a7.906 7.906 0 010-15.812 1.502 1.502 0 110 3.004 4.902 4.902 0 000 9.804h4.914V14.345a1.502 1.502 0 013.004 0v12.808a1.502 1.502 0 01-1.502 1.502z" fill="#fff"/><path d="M8.607 41.475A7.917 7.917 0 012.81 27.857a7.918 7.918 0 015.797-2.206 1.502 1.502 0 010 3.004 4.914 4.914 0 104.902 4.914v-6.416a1.502 1.502 0 113.004 0v6.416a7.918 7.918 0 01-7.906 7.906z" fill="#fff"/><path d="M21.427 28.86a8.014 8.014 0 110-16.029 8.014 8.014 0 010 16.028zm0-13.013a5.01 5.01 0 100 10.02 5.01 5.01 0 000-10.02z" fill="#fff"/><path d="M14.926 15.847a1.503 1.503 0 01-1.49-1.514l.097-12.82a1.502 1.502 0 011.49-1.49 1.502 1.502 0 011.49 1.513l-.097 12.82a1.514 1.514 0 01-1.49 1.49z" fill="#fff"/></symbol><symbol fill="none" viewBox="0 0 37 39" id="github" xmlns="http://www.w3.org/2000/svg"><path d="M25.728 37.673v-6.635a5.744 5.744 0 00-1.622-4.474c5.417-.6 11.11-2.64 11.11-12a9.294 9.294 0 00-2.587-6.428 8.64 8.64 0 00-.155-6.463s-2.036-.6-6.746 2.537a23.227 23.227 0 00-12.077 0c-4.71-3.137-6.746-2.537-6.746-2.537a8.64 8.64 0 00-.155 6.463 9.294 9.294 0 00-2.588 6.48c0 9.291 5.693 11.331 11.11 12a5.744 5.744 0 00-1.622 4.423v6.634m.001-5.143C5.025 35.1 5.025 28.244 1.574 27.387l12.077 5.143z" stroke="#fff" stroke-width="2" stroke-linecap="round" stroke-linejoin="round"/></symbol><symbol fill="none" viewBox="0 0 32 32" id="linkedin" xmlns="http://www.w3.org/2000/svg"><path fill-rule="evenodd" clip-rule="evenodd" d="M7.419 32V10.613H0V32h7.419zM3.986 7.375C6.46 7.375 8 5.737 8 3.687 7.96 1.6 6.46 0 4.027 0 1.595 0 .014 1.6.014 3.688c0 2.05 1.54 3.687 3.918 3.687h.054zM24.075 10c-3.637 0-5.2 2.062-6.2 3.495v-2.992H11V32h6.875V19.755c0-.628.05-1.257.238-1.697.5-1.257 1.625-2.552 3.524-2.552 2.488 0 3.488 1.924 3.488 4.74V32H32V19.441C32 12.992 28.6 10 24.075 10z" fill="#fff"/></symbol><symbol fill="none" viewBox="0 0 39 39" id="url" xmlns="http://www.w3.org/2000/svg"><path d="M31.867 21.048v12.015a4.005 4.005 0 01-4.005 4.005H5.834a4.005 4.005 0 01-4.005-4.005V11.035A4.005 4.005 0 015.834 7.03h12.015M25.86 1.022h12.015v12.016M16.247 22.65L37.875 1.022" stroke="#fff" stroke-width="2" stroke-linecap="round" stroke-linejoin="round"/></symbol><symbol viewBox="0 0 24 24" id="whatsapp" xmlns="http://www.w3.org/2000/svg"><path d="M12.012 2c-5.506 0-9.989 4.478-9.99 9.984a9.964 9.964 0 001.333 4.993L2 22l5.232-1.236a9.981 9.981 0 004.774 1.215h.004c5.505 0 9.985-4.48 9.988-9.985a9.922 9.922 0 00-2.922-7.066A9.923 9.923 0 0012.012 2zm-.002 2a7.95 7.95 0 015.652 2.342 7.93 7.93 0 012.336 5.65c-.002 4.404-3.584 7.987-7.99 7.987a7.999 7.999 0 01-3.817-.971l-.673-.367-.745.175-1.968.465.48-1.785.217-.8-.414-.72a7.98 7.98 0 01-1.067-3.992C4.023 7.582 7.607 4 12.01 4zM8.477 7.375a.917.917 0 00-.666.313c-.23.248-.875.852-.875 2.08 0 1.228.894 2.415 1.02 2.582.123.166 1.726 2.765 4.263 3.765 2.108.831 2.536.667 2.994.625.458-.04 1.477-.602 1.685-1.185.208-.583.209-1.085.147-1.188-.062-.104-.229-.166-.479-.29-.249-.126-1.476-.728-1.705-.811-.229-.083-.396-.125-.562.125-.166.25-.643.81-.79.976-.145.167-.29.19-.54.065-.25-.126-1.054-.39-2.008-1.24-.742-.662-1.243-1.477-1.389-1.727-.145-.25-.013-.386.112-.51.112-.112.248-.291.373-.437.124-.146.167-.25.25-.416.083-.166.04-.313-.022-.438s-.547-1.357-.77-1.851c-.186-.415-.384-.425-.562-.432-.145-.006-.31-.006-.476-.006z"/></symbol></svg>